<svg width="44" height="44" viewBox="0 0 44 44" fill="none" xmlns="http://www.w3.org/2000/svg">
<rect width="44" height="44" rx="6.4" fill="#FAE598" fill-opacity="0.32"/>
<path d="M10.3546 12.4325C10.3546 12.2241 10.4374 12.0243 10.5847 11.877C10.732 11.7297 10.9318 11.647 11.1401 11.647H11.8282C12.9703 11.647 13.627 12.39 14.0072 13.1315C14.2664 13.639 14.4534 14.2579 14.6089 14.7952H30.7825C31.0252 14.7953 31.2647 14.8516 31.482 14.9598C31.6993 15.0679 31.8886 15.225 32.035 15.4186C32.1815 15.6122 32.281 15.8371 32.3259 16.0756C32.3708 16.3142 32.3598 16.5599 32.2938 16.7935L29.9436 25.0804C29.7566 25.7379 29.3604 26.3165 28.8149 26.7284C28.2694 27.1403 27.6045 27.3631 26.9209 27.3631H18.9418C18.2525 27.3633 17.5823 27.1369 17.0344 26.7187C16.4865 26.3006 16.0913 25.7139 15.9097 25.049L14.9011 21.3493C14.8953 21.3328 14.8901 21.316 14.8854 21.2991L13.2657 15.8054L13.1086 15.2759C12.9515 14.7324 12.8132 14.2517 12.6059 13.8479C12.3561 13.3609 12.1267 13.2195 11.8266 13.2195H11.1385C10.9302 13.2195 10.7304 13.1368 10.5831 12.9895C10.4358 12.8422 10.353 12.6424 10.353 12.434L10.3546 12.4325ZM18.9999 33.647C19.6249 33.647 20.2243 33.3987 20.6662 32.9568C21.1081 32.5149 21.3564 31.9155 21.3564 31.2905C21.3564 30.6655 21.1081 30.0662 20.6662 29.6242C20.2243 29.1823 19.6249 28.934 18.9999 28.934C18.3749 28.934 17.7755 29.1823 17.3336 29.6242C16.8916 30.0662 16.6434 30.6655 16.6434 31.2905C16.6434 31.9155 16.8916 32.5149 17.3336 32.9568C17.7755 33.3987 18.3749 33.647 18.9999 33.647ZM26.8549 33.647C27.4799 33.647 28.0793 33.3987 28.5213 32.9568C28.9632 32.5149 29.2115 31.9155 29.2115 31.2905C29.2115 30.6655 28.9632 30.0662 28.5213 29.6242C28.0793 29.1823 27.4799 28.934 26.8549 28.934C26.23 28.934 25.6306 29.1823 25.1886 29.6242C24.7467 30.0662 24.4984 30.6655 24.4984 31.2905C24.4984 31.9155 24.7467 32.5149 25.1886 32.9568C25.6306 33.3987 26.23 33.647 26.8549 33.647Z" fill="#C5AA4A"/>
</svg>
