<svg width="44" height="44" viewBox="0 0 44 44" fill="none" xmlns="http://www.w3.org/2000/svg">
<rect width="44" height="44" rx="6.4" fill="#FFA8AA" fill-opacity="0.24"/>
<path d="M19.0509 14.0038V11.647ZM13.9251 19.3068H11.647ZM15.2885 23.1995L13.6776 24.866ZM24.4244 13.7475L22.8134 15.414ZM13.6774 13.7476L15.2883 15.4142ZM23.6158 32.4469L25.3106 27.8597C25.5406 27.2372 26.0741 26.7888 26.7103 26.6835L30.8336 26.001C32.6157 25.706 32.9205 23.1858 31.2637 22.4455L20.2617 17.5305C18.9288 16.9351 17.4969 18.13 17.7771 19.6037L20.1616 32.141C20.5113 33.9796 22.9691 34.1973 23.6158 32.4469Z" fill="#FF8587"/>
<path d="M19.0509 14.0038V11.647M13.9251 19.3068H11.647M15.2885 23.1995L13.6776 24.866M24.4244 13.7475L22.8134 15.414M13.6774 13.7476L15.2883 15.4142M23.6158 32.4469L25.3106 27.8597C25.5406 27.2372 26.0741 26.7888 26.7103 26.6835L30.8336 26.001C32.6157 25.706 32.9205 23.1858 31.2637 22.4455L20.2617 17.5305C18.9288 16.9351 17.4969 18.13 17.7771 19.6037L20.1616 32.141C20.5113 33.9796 22.9691 34.1973 23.6158 32.4469Z" stroke="#FF8587" stroke-width="1.25" stroke-linecap="round"/>
</svg>
