<svg width="44" height="44" viewBox="0 0 44 44" fill="none" xmlns="http://www.w3.org/2000/svg">
<rect width="44" height="44" rx="6.4" fill="#00BEEF" fill-opacity="0.12"/>
<path fill-rule="evenodd" clip-rule="evenodd" d="M21.4808 10.353H21.3656C20.3704 10.353 19.5413 10.353 18.8837 10.4416C18.1885 10.5346 17.5608 10.7405 17.0571 11.2442C16.5523 11.749 16.3464 12.3767 16.2534 13.0708C16.1903 13.5434 16.1715 14.6715 16.1671 15.639C13.9287 15.7132 12.5837 15.9745 11.6505 16.9088C10.353 18.2051 10.353 20.2929 10.353 24.4675C10.353 28.642 10.353 30.7299 11.6505 32.0262C12.9468 33.3236 15.0346 33.3236 19.2092 33.3236H23.6372C27.8118 33.3236 29.8996 33.3236 31.1959 32.0262C32.4934 30.7299 32.4934 28.642 32.4934 24.4675C32.4934 20.2929 32.4934 18.2051 31.1959 16.9088C30.2627 15.9745 28.9177 15.7132 26.6793 15.6401C26.6749 14.6715 26.6572 13.5434 26.593 13.0719C26.5 12.3767 26.2941 11.749 25.7893 11.2453C25.2856 10.7405 24.6579 10.5346 23.9627 10.4416C23.3051 10.353 22.4749 10.353 21.4808 10.353ZM25.0188 15.6136C25.0132 14.6759 24.9977 13.6674 24.9479 13.2922C24.8782 12.7818 24.7597 12.5626 24.6158 12.4187C24.4719 12.2748 24.2527 12.1564 23.7413 12.0866C23.2077 12.0158 22.4904 12.0136 21.4232 12.0136C20.356 12.0136 19.6387 12.0158 19.104 12.0877C18.5937 12.1564 18.3745 12.2748 18.2306 12.4198C18.0866 12.5637 17.9682 12.7818 17.8985 13.2922C17.8486 13.6685 17.832 14.6759 17.8276 15.6136C18.2604 15.6114 18.7221 15.6114 19.2092 15.6114H23.6372C24.1254 15.6114 24.5859 15.6114 25.0188 15.6136ZM21.4232 19.2092C21.6434 19.2092 21.8546 19.2966 22.0103 19.4523C22.166 19.608 22.2535 19.8192 22.2535 20.0394V20.0505C23.459 20.3538 24.4675 21.3047 24.4675 22.6221C24.4675 22.8423 24.38 23.0535 24.2243 23.2092C24.0686 23.3649 23.8574 23.4524 23.6372 23.4524C23.417 23.4524 23.2058 23.3649 23.0501 23.2092C22.8944 23.0535 22.807 22.8423 22.807 22.6221C22.807 22.197 22.3354 21.6081 21.4232 21.6081C20.511 21.6081 20.0394 22.197 20.0394 22.6221C20.0394 23.0472 20.511 23.6372 21.4232 23.6372C22.9564 23.6372 24.4675 24.7 24.4675 26.3129C24.4675 27.6302 23.459 28.5801 22.2535 28.8845V28.8956C22.2535 29.1158 22.166 29.3269 22.0103 29.4826C21.8546 29.6383 21.6434 29.7258 21.4232 29.7258C21.203 29.7258 20.9918 29.6383 20.8361 29.4826C20.6804 29.3269 20.5929 29.1158 20.5929 28.8956V28.8845C19.3874 28.5812 18.3789 27.6302 18.3789 26.3129C18.3789 26.0927 18.4664 25.8815 18.6221 25.7258C18.7778 25.5701 18.989 25.4826 19.2092 25.4826C19.4294 25.4826 19.6405 25.5701 19.7962 25.7258C19.9519 25.8815 20.0394 26.0927 20.0394 26.3129C20.0394 26.738 20.511 27.3269 21.4232 27.3269C22.3354 27.3269 22.807 26.738 22.807 26.3129C22.807 25.8878 22.3354 25.2977 21.4232 25.2977C19.89 25.2977 18.3789 24.235 18.3789 22.6221C18.3789 21.3047 19.3874 20.3538 20.5929 20.0505V20.0394C20.5929 19.8192 20.6804 19.608 20.8361 19.4523C20.9918 19.2966 21.203 19.2092 21.4232 19.2092Z" fill="#26A6EE"/>
</svg>
