<svg width="44" height="44" viewBox="0 0 44 44" fill="none" xmlns="http://www.w3.org/2000/svg">
<rect width="44" height="44" rx="6.4" fill="#C36EEC" fill-opacity="0.24"/>
<path d="M22.0002 22.7766C20.6655 22.7766 19.3854 22.2312 18.4416 21.2604C17.4978 20.2896 16.9676 18.973 16.9676 17.6001H18.9806C18.9806 18.4238 19.2988 19.2138 19.865 19.7963C20.4313 20.3787 21.1994 20.706 22.0002 20.706C22.8011 20.706 23.5691 20.3787 24.1354 19.7963C24.7017 19.2138 25.0198 18.4238 25.0198 17.6001H27.0329C27.0329 18.973 26.5027 20.2896 25.5589 21.2604C24.6151 22.2312 23.335 22.7766 22.0002 22.7766ZM22.0002 12.4236C22.8011 12.4236 23.5691 12.7508 24.1354 13.3333C24.7017 13.9158 25.0198 14.7058 25.0198 15.5295H18.9806C18.9806 14.7058 19.2988 13.9158 19.865 13.3333C20.4313 12.7508 21.1994 12.4236 22.0002 12.4236ZM29.046 15.5295H27.0329C27.0329 14.8497 26.9027 14.1766 26.6498 13.5485C26.3969 12.9205 26.0262 12.3499 25.5589 11.8692C25.0915 11.3885 24.5367 11.0072 23.9262 10.7471C23.3156 10.4869 22.6611 10.353 22.0002 10.353C20.6655 10.353 19.3854 10.8984 18.4416 11.8692C17.4978 12.84 16.9676 14.1566 16.9676 15.5295H14.9545C13.8372 15.5295 12.9414 16.4509 12.9414 17.6001V30.0236C12.9414 30.5728 13.1535 31.0994 13.531 31.4877C13.9085 31.8761 14.4206 32.0942 14.9545 32.0942H29.046C29.5799 32.0942 30.0919 31.8761 30.4694 31.4877C30.847 31.0994 31.0591 30.5728 31.0591 30.0236V17.6001C31.0591 17.0509 30.847 16.5243 30.4694 16.136C30.0919 15.7476 29.5799 15.5295 29.046 15.5295Z" fill="#C36EEC"/>
</svg>
