<?xml version="1.0" encoding="utf-8"?>
<!-- Generator: Adobe Illustrator 27.6.1, SVG Export Plug-In . SVG Version: 6.00 Build 0)  -->
<svg version="1.1" id="Layer_1" xmlns="http://www.w3.org/2000/svg" xmlns:xlink="http://www.w3.org/1999/xlink" x="0px" y="0px"
	 viewBox="0 0 106 20.1" style="enable-background:new 0 0 106 20.1;" xml:space="preserve">
<style type="text/css">
	.st0{fill:#0F0F0F;}
	.st1{fill-rule:evenodd;clip-rule:evenodd;fill:#FF8587;}
	.st2{fill-rule:evenodd;clip-rule:evenodd;fill:#F8DA6D;}
	.st3{fill-rule:evenodd;clip-rule:evenodd;fill:#26A6EE;}
</style>
<path class="st0" d="M25.6,14.3c-0.3,0-0.6-0.1-0.7-0.3s-0.3-0.4-0.3-0.7V6.8c0-0.3,0.1-0.6,0.3-0.7c0.2-0.2,0.4-0.3,0.7-0.3h2.9
	c0.6,0,1.1,0.1,1.5,0.3s0.7,0.4,1,0.8c0.2,0.3,0.3,0.7,0.3,1.2c0,0.5-0.1,0.9-0.4,1.3c-0.3,0.4-0.7,0.6-1.2,0.7V9.8
	c0.6,0.1,1,0.3,1.4,0.7c0.3,0.4,0.5,0.8,0.5,1.4c0,0.8-0.3,1.3-0.8,1.8c-0.5,0.4-1.2,0.6-2.1,0.6H25.6z M26.4,12.9h2
	c0.5,0,0.8-0.1,1.1-0.3c0.2-0.2,0.3-0.5,0.3-0.8s-0.1-0.6-0.3-0.8c-0.2-0.2-0.6-0.3-1.1-0.3h-2V12.9z M26.4,9.3h1.8
	c0.5,0,0.8-0.1,1-0.3c0.2-0.2,0.3-0.4,0.3-0.8c0-0.3-0.1-0.6-0.3-0.8c-0.2-0.2-0.6-0.3-1-0.3h-1.8V9.3z M36.6,14.4
	c-0.6,0-1.1-0.1-1.6-0.2c-0.5-0.2-0.8-0.4-1.2-0.7c-0.3-0.3-0.5-0.7-0.7-1.1c-0.2-0.5-0.2-1-0.2-1.6V6.7c0-0.3,0.1-0.5,0.2-0.7
	s0.4-0.2,0.7-0.2c0.3,0,0.5,0.1,0.7,0.2s0.2,0.4,0.2,0.7v4.1c0,0.7,0.2,1.2,0.5,1.6c0.3,0.3,0.8,0.5,1.4,0.5s1-0.2,1.3-0.5
	c0.3-0.4,0.5-0.9,0.5-1.6V6.7c0-0.3,0.1-0.5,0.2-0.7s0.4-0.2,0.7-0.2s0.5,0.1,0.7,0.2c0.2,0.2,0.2,0.4,0.2,0.7v4.1
	c0,0.8-0.1,1.5-0.4,2c-0.3,0.5-0.7,1-1.2,1.2C38,14.3,37.4,14.4,36.6,14.4z M44.8,14.4c-0.3,0-0.5-0.1-0.7-0.3
	c-0.2-0.2-0.2-0.4-0.2-0.7V9.9l0.4,1.1l-2.8-4c-0.1-0.2-0.2-0.3-0.1-0.5c0-0.2,0.1-0.4,0.2-0.5s0.3-0.2,0.6-0.2c0.2,0,0.4,0,0.5,0.1
	c0.2,0.1,0.3,0.2,0.5,0.5L45,9.1h-0.4l1.9-2.8c0.2-0.2,0.3-0.4,0.4-0.5c0.2-0.1,0.3-0.1,0.5-0.1c0.3,0,0.5,0.1,0.6,0.2
	c0.1,0.1,0.2,0.3,0.2,0.5c0,0.2-0.1,0.4-0.2,0.6l-2.8,4l0.4-1.1v3.5C45.7,14.1,45.4,14.4,44.8,14.4z M53.7,14.4
	c-0.3,0-0.5-0.1-0.7-0.3c-0.2-0.2-0.2-0.4-0.2-0.7V6.8c0-0.3,0.1-0.5,0.2-0.7c0.2-0.2,0.4-0.2,0.7-0.2h2.9c0.9,0,1.7,0.2,2.2,0.7
	c0.5,0.5,0.8,1.1,0.8,2c0,0.8-0.3,1.5-0.8,2c-0.5,0.5-1.2,0.7-2.2,0.7h-2v2.2c0,0.3-0.1,0.5-0.2,0.7C54.2,14.3,54,14.4,53.7,14.4z
	 M54.6,9.8h1.7c0.5,0,0.8-0.1,1.1-0.3c0.3-0.2,0.4-0.5,0.4-0.9c0-0.4-0.1-0.7-0.4-0.9c-0.2-0.2-0.6-0.3-1.1-0.3h-1.7V9.8z
	 M61.7,14.4c-0.3,0-0.5-0.1-0.7-0.3c-0.2-0.2-0.2-0.4-0.2-0.7V6.7c0-0.3,0.1-0.5,0.2-0.7c0.2-0.2,0.4-0.3,0.7-0.3
	c0.3,0,0.5,0.1,0.7,0.3c0.2,0.2,0.2,0.4,0.2,0.7v2.5h3.9V6.7c0-0.3,0.1-0.5,0.2-0.7c0.2-0.2,0.4-0.3,0.7-0.3c0.3,0,0.5,0.1,0.7,0.3
	c0.2,0.2,0.2,0.4,0.2,0.7v6.8c0,0.3-0.1,0.5-0.2,0.7c-0.2,0.2-0.4,0.3-0.7,0.3c-0.3,0-0.5-0.1-0.7-0.3c-0.2-0.2-0.2-0.4-0.2-0.7
	v-2.7h-3.9v2.7c0,0.3-0.1,0.5-0.2,0.7C62.2,14.3,62,14.4,61.7,14.4z M70.3,14.4c-0.2,0-0.4-0.1-0.6-0.2c-0.1-0.1-0.2-0.2-0.3-0.4
	c0-0.2,0-0.4,0.1-0.6l3.1-6.7C72.8,6.2,73,6,73.2,5.9c0.2-0.1,0.4-0.2,0.6-0.2s0.4,0.1,0.6,0.2c0.2,0.1,0.3,0.3,0.4,0.6l3.1,6.7
	c0.1,0.2,0.1,0.4,0.1,0.6c0,0.2-0.1,0.3-0.2,0.4c-0.1,0.1-0.3,0.1-0.5,0.1c-0.3,0-0.5-0.1-0.6-0.2c-0.1-0.1-0.3-0.3-0.4-0.6
	l-0.7-1.7l0.7,0.5h-5l0.7-0.5l-0.7,1.7c-0.1,0.3-0.2,0.5-0.4,0.6C70.8,14.3,70.6,14.4,70.3,14.4z M73.8,7.8l-1.5,3.7L71.9,11h3.8
	l-0.3,0.5L73.8,7.8L73.8,7.8z M80.1,14.4c-0.3,0-0.5-0.1-0.7-0.3c-0.2-0.2-0.2-0.4-0.2-0.7V6.8c0-0.3,0.1-0.5,0.2-0.7
	c0.2-0.2,0.4-0.2,0.7-0.2H83c0.9,0,1.7,0.2,2.2,0.7C85.7,7,86,7.6,86,8.4c0,0.5-0.1,1-0.3,1.4s-0.6,0.7-1,0.9
	c-0.4,0.2-1,0.3-1.6,0.3l0.1-0.2h0.5c0.3,0,0.6,0.1,0.9,0.3c0.3,0.2,0.5,0.4,0.7,0.7l0.7,1.4c0.1,0.2,0.2,0.4,0.2,0.6
	c0,0.2-0.1,0.3-0.2,0.5c-0.1,0.1-0.3,0.2-0.6,0.2s-0.5-0.1-0.6-0.2c-0.2-0.1-0.3-0.3-0.4-0.5L83,11.6c-0.1-0.2-0.3-0.4-0.4-0.5
	C82.4,11,82.2,11,81.9,11H81v2.4c0,0.3-0.1,0.5-0.2,0.7C80.6,14.3,80.4,14.4,80.1,14.4z M81,9.7h1.7c0.5,0,0.9-0.1,1.1-0.3
	c0.3-0.2,0.4-0.5,0.4-0.9c0-0.4-0.1-0.7-0.4-0.9c-0.2-0.2-0.6-0.3-1.1-0.3H81V9.7z M88.4,14.4c-0.3,0-0.5-0.1-0.6-0.2
	c-0.1-0.2-0.2-0.4-0.2-0.6V6.6c0-0.3,0.1-0.5,0.2-0.6c0.2-0.2,0.4-0.2,0.6-0.2c0.2,0,0.4,0,0.6,0.1c0.1,0.1,0.3,0.2,0.4,0.5l2.8,5.1
	h-0.4l2.8-5.1c0.1-0.2,0.2-0.4,0.4-0.5c0.1-0.1,0.3-0.1,0.6-0.1c0.3,0,0.5,0.1,0.6,0.2c0.2,0.2,0.2,0.4,0.2,0.6v6.9
	c0,0.3-0.1,0.5-0.2,0.6c-0.1,0.2-0.4,0.2-0.6,0.2c-0.3,0-0.5-0.1-0.6-0.2c-0.1-0.2-0.2-0.4-0.2-0.6V8.7h0.3l-2.2,4
	c-0.1,0.2-0.2,0.3-0.3,0.3c-0.1,0.1-0.2,0.1-0.4,0.1c-0.2,0-0.3,0-0.4-0.1c-0.1-0.1-0.2-0.2-0.3-0.3l-2.3-4h0.3v4.9
	c0,0.3-0.1,0.5-0.2,0.6C88.9,14.3,88.6,14.4,88.4,14.4z M98.3,14.4c-0.2,0-0.4-0.1-0.6-0.2c-0.1-0.1-0.2-0.2-0.3-0.4
	c0-0.2,0-0.4,0.1-0.6l3.1-6.7c0.1-0.3,0.3-0.5,0.5-0.6c0.2-0.1,0.4-0.2,0.6-0.2c0.2,0,0.4,0.1,0.6,0.2c0.2,0.1,0.3,0.3,0.4,0.6
	l3.1,6.7c0.1,0.2,0.1,0.4,0.1,0.6c0,0.2-0.1,0.3-0.2,0.4c-0.1,0.1-0.3,0.1-0.5,0.1c-0.3,0-0.5-0.1-0.6-0.2c-0.1-0.1-0.3-0.3-0.4-0.6
	l-0.7-1.7l0.7,0.5h-5l0.7-0.5l-0.7,1.7c-0.1,0.3-0.2,0.5-0.4,0.6C98.7,14.3,98.5,14.4,98.3,14.4z M101.7,7.8l-1.5,3.7L99.8,11h3.8
	l-0.3,0.5L101.7,7.8L101.7,7.8z"/>
<g>
	<path class="st1" d="M4.7,8.4l-3.4,3.4c-1.8,1.8-1.8,4.6,0,6.4c1.5,1.5,3.8,1.7,5.6,0.7c-0.9-1.9-0.6-4.3,1-5.9
		c1.6-1.6,4.1-1.9,6-0.9l3.8-3.8c1.8-1.8,1.8-4.6,0-6.4c-1.7-1.7-4.4-1.8-6.1-0.3c0.9,1.8,0.6,4.1-0.9,5.7C9.1,8.9,6.7,9.3,4.7,8.4z
		"/>
	<path class="st2" d="M7,7.3c2,0,3.7-1.6,3.7-3.7c0-0.9-0.3-1.7-0.8-2.3L4.6,6.5C5.3,7,6.1,7.3,7,7.3z M4.1,6l5.2-5.2
		C8.6,0.3,7.8,0,7,0c-2,0-3.7,1.6-3.7,3.7C3.3,4.5,3.6,5.3,4.1,6z"/>
	<path class="st3" d="M11.4,20.1c2,0,3.7-1.6,3.7-3.7c0-0.9-0.3-1.7-0.8-2.3L9,19.3C9.7,19.8,10.5,20.1,11.4,20.1z M8.5,18.7
		l5.2-5.2c-0.6-0.5-1.4-0.8-2.3-0.8c-2,0-3.7,1.6-3.7,3.7C7.7,17.3,8,18.1,8.5,18.7z"/>
</g>
</svg>
