<?xml version="1.0" encoding="utf-8"?>
<!-- Generator: Adobe Illustrator 27.6.1, SVG Export Plug-In . SVG Version: 6.00 Build 0)  -->
<svg version="1.1" id="Layer_1" xmlns="http://www.w3.org/2000/svg" xmlns:xlink="http://www.w3.org/1999/xlink" x="0px" y="0px"
	 viewBox="0 0 12 12" style="enable-background:new 0 0 12 12;" xml:space="preserve">
<style type="text/css">
	.st0{fill:#26A6EE;}
</style>
<path class="st0" d="M6,0C4.8,0,3.7,0.4,2.7,1c-1,0.7-1.8,1.6-2.2,2.7C0,4.8-0.1,6,0.1,7.2s0.8,2.2,1.6,3.1c0.8,0.8,1.9,1.4,3.1,1.6
	s2.4,0.1,3.5-0.4s2-1.2,2.7-2.2s1-2.1,1-3.3c0-1.6-0.6-3.1-1.8-4.2C9.1,0.6,7.6,0,6,0z M6.7,8.8H6.5v0.5c0,0.1,0,0.2-0.1,0.3
	C6.2,9.6,6.1,9.7,6,9.7s-0.2,0-0.3-0.1C5.6,9.5,5.5,9.4,5.5,9.2V8.8H4.6c-0.1,0-0.2,0-0.3-0.1C4.2,8.5,4.2,8.4,4.2,8.3
	c0-0.1,0-0.2,0.1-0.3c0.1-0.1,0.2-0.1,0.3-0.1h2.1c0.2,0,0.4-0.1,0.5-0.2s0.2-0.3,0.2-0.5S7.3,6.8,7.2,6.7C7.1,6.5,6.9,6.5,6.7,6.5
	H5.3C4.9,6.5,4.5,6.3,4.2,6C3.9,5.7,3.7,5.3,3.7,4.8c0-0.4,0.2-0.8,0.5-1.1c0.3-0.3,0.7-0.5,1.1-0.5h0.2V2.8c0-0.1,0-0.2,0.1-0.3
	C5.8,2.4,5.9,2.3,6,2.3s0.2,0,0.3,0.1c0.1,0.1,0.1,0.2,0.1,0.3v0.5h0.9c0.1,0,0.2,0,0.3,0.1c0.1,0.1,0.1,0.2,0.1,0.3s0,0.2-0.1,0.3
	c0,0.2-0.1,0.3-0.2,0.3H5.3c-0.2,0-0.4,0.1-0.5,0.2C4.7,4.5,4.6,4.7,4.6,4.8s0.1,0.4,0.2,0.5s0.3,0.2,0.5,0.2h1.4
	c0.4,0,0.8,0.2,1.1,0.5s0.5,0.7,0.5,1.1S8.1,7.9,7.8,8.2C7.5,8.6,7.1,8.8,6.7,8.8z"/>
</svg>
