<?xml version="1.0" encoding="utf-8"?>
<!-- Generator: Adobe Illustrator 27.6.1, SVG Export Plug-In . SVG Version: 6.00 Build 0)  -->
<svg version="1.1" id="Layer_1" xmlns="http://www.w3.org/2000/svg" xmlns:xlink="http://www.w3.org/1999/xlink" x="0px" y="0px"
	 viewBox="0 0 11 12" style="enable-background:new 0 0 11 12;" xml:space="preserve">
<style type="text/css">
	.st0{fill:#26A6EE;}
</style>
<path class="st0" d="M5.1,6.9c-0.8,0-1.5-0.3-2-0.8C2.6,5.5,2.3,4.8,2.3,4h1.1c0,0.5,0.2,0.9,0.5,1.2c0.3,0.3,0.8,0.5,1.2,0.5
	c0.5,0,0.9-0.2,1.2-0.5C6.7,4.9,6.9,4.5,6.9,4H8c0,0.8-0.3,1.5-0.8,2C6.6,6.6,5.9,6.9,5.1,6.9z M5.1,1.1c0.5,0,0.9,0.2,1.2,0.5
	C6.7,2,6.9,2.4,6.9,2.9H3.4c0-0.5,0.2-0.9,0.5-1.2S4.7,1.1,5.1,1.1z M9.1,2.9H8c0-0.4-0.1-0.7-0.2-1.1c-0.2-0.4-0.4-0.7-0.6-1
	c-0.3-0.2-0.6-0.4-1-0.6C5.9,0.1,5.5,0,5.1,0c-0.8,0-1.5,0.3-2,0.8s-0.8,1.3-0.8,2H1.1C0.5,2.9,0,3.4,0,4v6.9c0,0.3,0.1,0.6,0.3,0.8
	S0.8,12,1.1,12h8c0.3,0,0.6-0.1,0.8-0.3s0.3-0.5,0.3-0.8V4c0-0.3-0.1-0.6-0.3-0.8C9.7,3,9.4,2.9,9.1,2.9z"/>
</svg>
