<?xml version="1.0" encoding="utf-8"?>
<!-- Generator: Adobe Illustrator 27.6.1, SVG Export Plug-In . SVG Version: 6.00 Build 0)  -->
<svg version="1.1" id="Layer_1" xmlns="http://www.w3.org/2000/svg" xmlns:xlink="http://www.w3.org/1999/xlink" x="0px" y="0px"
	 viewBox="0 0 12 12" style="enable-background:new 0 0 12 12;" xml:space="preserve">
<style type="text/css">
	.st0{fill:#2C2C2C;}
</style>
<path class="st0" d="M1,0h3c0.6,0,1,0.4,1,1v3c0,0.6-0.4,1-1,1H1C0.4,5,0,4.6,0,4V1C0,0.4,0.4,0,1,0z"/>
<path class="st0" d="M8,0h3c0.6,0,1,0.4,1,1v3c0,0.6-0.4,1-1,1H8C7.4,5,7,4.6,7,4V1C7,0.4,7.4,0,8,0z"/>
<path class="st0" d="M8,7h3c0.6,0,1,0.4,1,1v3c0,0.6-0.4,1-1,1H8c-0.6,0-1-0.4-1-1V8C7,7.4,7.4,7,8,7z"/>
<path class="st0" d="M1,7h3c0.6,0,1,0.4,1,1v3c0,0.6-0.4,1-1,1H1c-0.6,0-1-0.4-1-1V8C0,7.4,0.4,7,1,7z"/>
</svg>
