<?xml version="1.0" encoding="utf-8"?>
<!-- Generator: Adobe Illustrator 27.6.1, SVG Export Plug-In . SVG Version: 6.00 Build 0)  -->
<svg version="1.1" id="Layer_1" xmlns="http://www.w3.org/2000/svg" xmlns:xlink="http://www.w3.org/1999/xlink" x="0px" y="0px"
	 viewBox="0 0 12 10" style="enable-background:new 0 0 12 10;" xml:space="preserve">
<style type="text/css">
	.st0{fill:#2C2C2C;}
</style>
<path class="st0" d="M1.3,0C0.9,0,0.6,0.1,0.4,0.4C0.1,0.6,0,0.9,0,1.2v7.5C0,9.4,0.6,10,1.3,10h9.1c0.3,0,0.7-0.1,0.9-0.4
	c0.2-0.2,0.4-0.6,0.4-0.9V2.7c0-0.3-0.1-0.6-0.4-0.9c-0.2-0.2-0.6-0.4-0.9-0.4H5.5c0,0-0.1,0-0.1,0c0,0,0,0-0.1-0.1L4.7,0.5
	C4.4,0.2,4,0,3.6,0H1.3z"/>
</svg>
