<?xml version="1.0" encoding="utf-8"?>
<!-- Generator: Adobe Illustrator 27.6.1, SVG Export Plug-In . SVG Version: 6.00 Build 0)  -->
<svg version="1.1" id="Layer_1" xmlns="http://www.w3.org/2000/svg" xmlns:xlink="http://www.w3.org/1999/xlink" x="0px" y="0px"
	 viewBox="0 0 12 12" style="enable-background:new 0 0 12 12;" xml:space="preserve">
<style type="text/css">
	.st0{fill:#2C2C2C;}
</style>
<path class="st0" d="M7.4,11.7C7.1,11.9,6.8,12,6.5,12c-0.3,0-0.6-0.1-0.9-0.3L0.4,6.4C0.3,6.3,0.2,6.1,0.1,6C0,5.8,0,5.7,0,5.5V1.2
	c0-0.3,0.1-0.6,0.4-0.8C0.6,0.1,0.9,0,1.2,0h4.3C5.7,0,5.8,0,6,0.1c0.2,0.1,0.3,0.2,0.4,0.3l5.3,5.3C11.9,5.9,12,6.2,12,6.5
	s-0.1,0.6-0.3,0.8L7.4,11.7z M2.7,3.6c0.3,0,0.5-0.1,0.6-0.3C3.5,3.2,3.6,3,3.6,2.7c0-0.3-0.1-0.5-0.3-0.6C3.2,1.9,3,1.8,2.7,1.8
	c-0.3,0-0.5,0.1-0.6,0.3C1.9,2.2,1.8,2.5,1.8,2.7c0,0.3,0.1,0.5,0.3,0.6C2.2,3.5,2.5,3.6,2.7,3.6z"/>
</svg>
